# Blender v2.90.1 OBJ File: ''
# www.blender.org
mtllib boek.mtl
o Cube
v 1.000000 0.463524 -1.000000
v 1.000000 -0.463524 -1.000000
v 1.000000 0.463524 1.000000
v 1.000000 -0.463524 1.000000
v -1.000000 0.463524 -1.000000
v -1.000000 -0.463524 -1.000000
v -1.000000 0.463524 1.000000
v -1.000000 -0.463524 1.000000
v -0.792128 -0.325790 1.000000
v -0.792128 -0.325790 -1.000000
v -0.792128 0.325790 1.000000
v -0.792128 0.325790 -1.000000
v 1.000000 -0.325790 -1.000000
v 1.000000 0.325790 1.000000
v 1.000000 0.325790 -1.000000
v 1.000000 -0.325790 1.000000
vt 0.625000 0.500000
vt 0.875000 0.500000
vt 0.875000 0.750000
vt 0.625000 0.750000
vt 0.375000 0.750000
vt 0.412143 0.750000
vt 0.412143 0.974016
vt 0.587857 0.974016
vt 0.587857 0.750000
vt 0.625000 1.000000
vt 0.375000 1.000000
vt 0.375000 0.000000
vt 0.625000 0.000000
vt 0.625000 0.250000
vt 0.375000 0.250000
vt 0.125000 0.500000
vt 0.375000 0.500000
vt 0.125000 0.750000
vt 0.412143 0.500000
vt 0.587857 0.500000
vt 0.587857 0.275984
vt 0.412143 0.275984
vt 0.375000 0.035036
vt 0.375000 0.199125
vt 0.625000 0.199125
vt 0.625000 0.035036
vt 0.875000 0.714964
vt 0.875000 0.550875
vt 0.685098 0.550875
vt 0.685098 0.714964
vt 0.125000 0.550875
vt 0.125000 0.714964
vt 0.314902 0.714964
vt 0.314902 0.550875
vn 0.0000 1.0000 0.0000
vn 0.0000 0.0000 1.0000
vn -1.0000 0.0000 0.0000
vn 0.0000 -1.0000 0.0000
vn 1.0000 0.0000 0.0000
vn 0.0000 0.0000 -1.0000
g Cube_Cube_Material
usemtl Material
s off
f 1/1/1 5/2/1 7/3/1 3/4/1
f 4/5/2 16/6/2 9/7/2 11/8/2 14/9/2 3/4/2 7/10/2 8/11/2
f 8/12/3 7/13/3 5/14/3 6/15/3
f 6/16/4 2/17/4 4/5/4 8/18/4
f 2/17/5 13/19/5 16/6/5 4/5/5
f 6/15/6 5/14/6 1/1/6 15/20/6 12/21/6 10/22/6 13/19/6 2/17/6
f 9/23/5 10/24/5 12/25/5 11/26/5
f 11/27/4 12/28/4 15/29/4 14/30/4
f 14/9/5 15/20/5 1/1/5 3/4/5
f 10/31/1 9/32/1 16/33/1 13/34/1
o Cube.001
v 0.901730 0.325790 -0.913593
v 0.901730 -0.325790 -0.913593
v 0.901730 0.325790 0.945599
v 0.901730 -0.325790 0.945599
v -0.904001 0.325790 -0.913593
v -0.904001 -0.325790 -0.913593
v -0.904001 0.325790 0.945599
v -0.904001 -0.325790 0.945599
vt 0.625000 0.500000
vt 0.875000 0.500000
vt 0.875000 0.750000
vt 0.625000 0.750000
vt 0.375000 0.750000
vt 0.625000 1.000000
vt 0.375000 1.000000
vt 0.375000 0.000000
vt 0.625000 0.000000
vt 0.625000 0.250000
vt 0.375000 0.250000
vt 0.125000 0.500000
vt 0.375000 0.500000
vt 0.125000 0.750000
vn 0.0000 1.0000 0.0000
vn 0.0000 0.0000 1.0000
vn -1.0000 0.0000 0.0000
vn 0.0000 -1.0000 0.0000
vn 1.0000 0.0000 0.0000
vn 0.0000 0.0000 -1.0000
g Cube.001_Cube.001_Material.001
usemtl Material.001
s off
f 17/35/7 21/36/7 23/37/7 19/38/7
f 20/39/8 19/38/8 23/40/8 24/41/8
f 24/42/9 23/43/9 21/44/9 22/45/9
f 22/46/10 18/47/10 20/39/10 24/48/10
f 18/47/11 17/35/11 19/38/11 20/39/11
f 22/45/12 21/44/12 17/35/12 18/47/12
